:SAMPLES-PER-SECOND 30
:FULLY-SPECIFIED
:DEGREES
571
root  7.86054 40.7045 1.77411 -164.328 -88.5194 159.095
RightUpLeg  -1.18763 -8.89562 -4.45841
RightLeg  7.94747 -6.6301 3.08744
RightFoot  -3.98792 -0.171178 2.23934
RightToes  0.000482159 0.542163 -0.142577
Spine  11.1929 -0.036239 -3.63412
Spine1  -2.65105 -1.17737 5.355
HEad  -7.56765 4.41308 -1.91673
LeftShoulder1  1.73243 -4.69045 -14.1837
LeftArm  -21.639 11.7922 -3.29584
LeftForeArm  -3.8241 -2.15982 -0.1068
LeftHand  -0.25398 0.0180481 5.50724
RightShoulder  0.912595 1.52431 10.9677
RightArm  -20.0551 -4.87563 3.52148
RightForeArm  -15.1757 3.49655 4.27816
RightHand  -1.83276 5.40032 -19.9057
LeftUpLeg  3.03346 5.16789 -0.540839
LeftLeg  6.2532 18.3526 -2.89557
LeftFoot  -6.17044 -0.125005 3.57381
LeftToes  1.06248e-005 4.65855e-005 -8.18498e-006
572
root  7.94679 40.7058 1.80467 -165.225 -88.3889 159.977
RightUpLeg  -1.33222 -8.82622 -4.49131
RightLeg  7.92532 -6.55934 3.07623
RightFoot  -3.81966 -0.179106 2.32111
RightToes  0.000482159 0.542163 -0.142577
Spine  11.0762 0.0596609 -3.66368
Spine1  -2.53989 -1.11469 5.55965
HEad  -7.4248 4.36841 -2.0935
LeftShoulder1  1.7229 -4.65834 -14.1462
LeftArm  -21.0372 11.6239 -3.2401
LeftForeArm  -2.11369 -1.6711 -0.234542
LeftHand  -0.25398 0.0180481 5.50724
RightShoulder  0.904808 1.48545 10.9513
RightArm  -19.6635 -4.54472 3.72893
RightForeArm  -14.015 3.621 4.39211
RightHand  -1.77514 5.36126 -19.3697
LeftUpLeg  2.95544 5.17806 -0.588179
LeftLeg  6.17542 18.4798 -2.9625
LeftFoot  -6.04842 -0.130147 3.6059
LeftToes  1.06248e-005 4.65855e-005 -8.18498e-006
573
root  8.02445 40.7063 1.83084 -167.138 -88.2384 161.878
RightUpLeg  -1.43228 -8.69139 -4.4835
RightLeg  7.83031 -6.51929 3.07662
RightFoot  -3.62895 -0.187102 2.40222
RightToes  0.000482159 0.542163 -0.142577
Spine  11.0654 0.138981 -3.62663
Spine1  -2.56716 -1.04531 5.66964
HEad  -7.26338 4.4835 -2.22772
LeftShoulder1  1.67064 -4.5007 -13.8836
LeftArm  -20.495 11.5711 -3.3668
LeftForeArm  0.182389 -0.956395 -0.268576
LeftHand  -0.25398 0.0180481 5.50724
RightShoulder  0.920412 1.5765 10.9318
RightArm  -19.4424 -4.40112 3.89247
RightForeArm  -12.9843 3.63005 4.42064
RightHand  -1.73803 5.40341 -18.9082
LeftUpLeg  2.87318 5.19595 -0.616951
LeftLeg  6.13501 18.6365 -2.98147
LeftFoot  -6.00756 -0.133543 3.64332
LeftToes  1.06248e-005 4.65855e-005 -8.18498e-006
574
root  8.09592 40.7044 1.85368 -169.035 -88.0946 163.732
RightUpLeg  -1.48329 -8.58066 -4.46229
RightLeg  7.72674 -6.49551 3.0813
RightFoot  -3.44257 -0.19059 2.42149
RightToes  0.000482159 0.542163 -0.142577
Spine  11.1693 0.190898 -3.49218
Spine1  -2.6794 -0.967719 5.59654
HEad  -7.15895 4.53133 -2.25384
LeftShoulder1  1.60911 -4.33961 -13.4923
LeftArm  -20.1303 11.6381 -3.58858
LeftForeArm  1.91166 -0.276492 -0.243184
LeftHand  -0.25398 0.0180481 5.50724
RightShoulder  0.951288 1.74233 10.9506
RightArm  -19.3658 -4.45151 3.92176
RightForeArm  -12.0374 3.59476 4.37434
RightHand  -1.67694 5.27336 -18.4788
LeftUpLeg  2.7904 5.20111 -0.645165
LeftLeg  6.17597 18.802 -2.93873
LeftFoot  -5.9943 -0.134376 3.6571
LeftToes  1.06248e-005 4.65855e-005 -8.18498e-006
575
root  8.16146 40.7016 1.87535 -169.882 -88.0137 164.527
RightUpLeg  -1.55335 -8.53194 -4.45172
RightLeg  7.70877 -6.49439 3.07011
RightFoot  -3.26566 -0.183785 2.283
RightToes  0.000482159 0.542163 -0.142577
Spine  11.2819 0.206466 -3.33954
Spine1  -2.72241 -0.923286 5.48672
HEad  -7.19277 4.43515 -2.23489
LeftShoulder1  1.57905 -4.26866 -13.2724
LeftArm  -19.9076 11.9174 -3.65573
LeftForeArm  2.26071 0.0195215 -0.235648
LeftHand  -0.25398 0.0180481 5.50724
RightShoulder  0.962437 1.81343 10.9145
RightArm  -19.452 -4.50673 3.89529
RightForeArm  -11.3891 3.54338 4.28889
RightHand  -1.62065 5.06243 -18.2237
LeftUpLeg  2.71254 5.22382 -0.684214
LeftLeg  6.24356 18.8764 -2.88616
LeftFoot  -5.95365 -0.133981 3.65849
LeftToes  1.06248e-005 4.65855e-005 -8.18498e-006
576
root  8.21738 40.6973 1.89462 -169.994 -88.0068 164.629
RightUpLeg  -1.6723 -8.50891 -4.4422
RightLeg  7.74855 -6.51325 3.04365
RightFoot  -3.11143 -0.175341 2.12302
RightToes  0.000482159 0.542163 -0.142577
Spine  11.3222 0.191359 -3.19864
Spine1  -2.6887 -0.916173 5.40113
HEad  -7.25486 4.29195 -2.18006
LeftShoulder1  1.57069 -4.23076 -13.2622
LeftArm  -19.5179 12.3445 -3.52799
LeftForeArm  1.25585 -0.121672 -0.397046
LeftHand  -0.25398 0.0180481 5.50724
RightShoulder  0.939702 1.72908 10.7551
RightArm  -19.7555 -4.50537 3.92718
RightForeArm  -11.1284 3.44362 4.16379
RightHand  -1.62988 5.10042 -18.2597
LeftUpLeg  2.60463 5.25148 -0.73138
LeftLeg  6.30865 18.8706 -2.83734
LeftFoot  -5.93262 -0.135683 3.68979
LeftToes  1.06248e-005 4.65855e-005 -8.18498e-006
